<svg xmlns="http://www.w3.org/2000/svg" xmlns:xlink="http://www.w3.org/1999/xlink" width="500" zoomAndPan="magnify" viewBox="0 0 375 374.999991" height="500" preserveAspectRatio="xMidYMid meet" version="1.0"><defs><clipPath id="6977733431"><path d="M 72.554688 13.339844 L 302.804688 13.339844 L 302.804688 361.339844 L 72.554688 361.339844 Z M 72.554688 13.339844 " clip-rule="nonzero"/></clipPath></defs><g clip-path="url(#6977733431)"><path fill="#ffffff" d="M 117.191406 361.585938 L 257.804688 361.585938 C 259.265625 361.585938 260.722656 361.515625 262.179688 361.371094 C 263.632812 361.230469 265.078125 361.015625 266.511719 360.730469 C 267.945312 360.445312 269.363281 360.089844 270.761719 359.664062 C 272.160156 359.242188 273.535156 358.75 274.886719 358.191406 C 276.238281 357.628906 277.554688 357.007812 278.84375 356.316406 C 280.136719 355.628906 281.386719 354.878906 282.601562 354.066406 C 283.820312 353.253906 284.992188 352.382812 286.121094 351.457031 C 287.25 350.527344 288.332031 349.546875 289.367188 348.511719 C 290.402344 347.480469 291.382812 346.398438 292.308594 345.269531 C 293.238281 344.136719 294.105469 342.964844 294.917969 341.75 C 295.730469 340.535156 296.480469 339.28125 297.171875 337.992188 C 297.859375 336.703125 298.484375 335.382812 299.042969 334.03125 C 299.601562 332.679688 300.09375 331.304688 300.519531 329.90625 C 300.945312 328.507812 301.296875 327.09375 301.582031 325.65625 C 301.867188 324.222656 302.082031 322.78125 302.226562 321.324219 C 302.371094 319.871094 302.441406 318.410156 302.441406 316.949219 L 302.441406 58.046875 C 302.441406 56.585938 302.371094 55.128906 302.226562 53.671875 C 302.082031 52.21875 301.867188 50.773438 301.582031 49.339844 C 301.296875 47.90625 300.945312 46.488281 300.519531 45.089844 C 300.09375 43.691406 299.601562 42.316406 299.042969 40.964844 C 298.484375 39.613281 297.859375 38.296875 297.171875 37.003906 C 296.480469 35.714844 295.730469 34.464844 294.917969 33.25 C 294.105469 32.03125 293.238281 30.859375 292.308594 29.730469 C 291.382812 28.601562 290.402344 27.519531 289.367188 26.484375 C 288.332031 25.449219 287.25 24.46875 286.121094 23.542969 C 284.992188 22.613281 283.820312 21.746094 282.601562 20.933594 C 281.386719 20.121094 280.136719 19.371094 278.84375 18.679688 C 277.554688 17.992188 276.238281 17.367188 274.886719 16.808594 C 273.535156 16.25 272.160156 15.757812 270.761719 15.332031 C 269.363281 14.90625 267.945312 14.554688 266.511719 14.269531 C 265.078125 13.984375 263.632812 13.769531 262.179688 13.625 C 260.722656 13.480469 259.265625 13.410156 257.804688 13.410156 L 117.191406 13.410156 C 115.730469 13.410156 114.273438 13.480469 112.816406 13.625 C 111.363281 13.769531 109.917969 13.984375 108.484375 14.269531 C 107.050781 14.554688 105.632812 14.90625 104.234375 15.332031 C 102.835938 15.757812 101.460938 16.25 100.109375 16.808594 C 98.761719 17.367188 97.441406 17.992188 96.152344 18.679688 C 94.863281 19.371094 93.609375 20.121094 92.394531 20.933594 C 91.179688 21.746094 90.003906 22.613281 88.875 23.542969 C 87.746094 24.46875 86.664062 25.449219 85.628906 26.484375 C 84.59375 27.519531 83.613281 28.601562 82.6875 29.730469 C 81.761719 30.859375 80.890625 32.03125 80.078125 33.25 C 79.265625 34.464844 78.515625 35.714844 77.824219 37.003906 C 77.136719 38.296875 76.511719 39.613281 75.953125 40.964844 C 75.394531 42.316406 74.902344 43.691406 74.476562 45.089844 C 74.050781 46.488281 73.699219 47.90625 73.414062 49.339844 C 73.128906 50.773438 72.914062 52.21875 72.769531 53.671875 C 72.625 55.128906 72.554688 56.585938 72.554688 58.046875 L 72.554688 316.949219 C 72.554688 318.410156 72.625 319.871094 72.769531 321.324219 C 72.914062 322.78125 73.128906 324.222656 73.414062 325.65625 C 73.699219 327.09375 74.050781 328.507812 74.476562 329.90625 C 74.902344 331.304688 75.394531 332.679688 75.953125 334.03125 C 76.511719 335.382812 77.136719 336.703125 77.824219 337.992188 C 78.515625 339.28125 79.265625 340.535156 80.078125 341.75 C 80.890625 342.964844 81.761719 344.136719 82.6875 345.269531 C 83.613281 346.398438 84.59375 347.480469 85.628906 348.511719 C 86.664062 349.546875 87.746094 350.527344 88.875 351.457031 C 90.003906 352.382812 91.179688 353.253906 92.394531 354.066406 C 93.609375 354.878906 94.863281 355.628906 96.152344 356.316406 C 97.441406 357.007812 98.761719 357.628906 100.109375 358.191406 C 101.460938 358.75 102.835938 359.242188 104.234375 359.664062 C 105.632812 360.089844 107.050781 360.445312 108.484375 360.730469 C 109.917969 361.015625 111.363281 361.230469 112.816406 361.371094 C 114.273438 361.515625 115.730469 361.585938 117.191406 361.585938 Z M 90.410156 58.046875 C 90.410156 57.171875 90.453125 56.296875 90.539062 55.421875 C 90.625 54.550781 90.753906 53.683594 90.925781 52.824219 C 91.097656 51.960938 91.308594 51.113281 91.5625 50.273438 C 91.816406 49.433594 92.113281 48.609375 92.449219 47.796875 C 92.785156 46.988281 93.160156 46.195312 93.574219 45.421875 C 93.984375 44.648438 94.4375 43.898438 94.925781 43.167969 C 95.410156 42.4375 95.933594 41.734375 96.488281 41.058594 C 97.046875 40.378906 97.632812 39.730469 98.253906 39.109375 C 98.875 38.488281 99.523438 37.902344 100.203125 37.34375 C 100.878906 36.789062 101.582031 36.265625 102.3125 35.777344 C 103.042969 35.292969 103.792969 34.839844 104.566406 34.425781 C 105.339844 34.015625 106.132812 33.640625 106.945312 33.304688 C 107.753906 32.96875 108.578125 32.671875 109.417969 32.417969 C 110.257812 32.164062 111.109375 31.949219 111.96875 31.78125 C 112.828125 31.609375 113.695312 31.480469 114.566406 31.394531 C 115.441406 31.308594 116.316406 31.265625 117.191406 31.265625 L 257.804688 31.265625 C 258.679688 31.265625 259.554688 31.308594 260.429688 31.394531 C 261.300781 31.480469 262.167969 31.609375 263.027344 31.78125 C 263.890625 31.949219 264.738281 32.164062 265.578125 32.417969 C 266.417969 32.671875 267.242188 32.96875 268.054688 33.304688 C 268.863281 33.640625 269.65625 34.015625 270.429688 34.425781 C 271.203125 34.839844 271.953125 35.292969 272.683594 35.777344 C 273.414062 36.265625 274.117188 36.789062 274.792969 37.34375 C 275.472656 37.902344 276.121094 38.488281 276.742188 39.109375 C 277.363281 39.730469 277.949219 40.378906 278.507812 41.058594 C 279.0625 41.734375 279.585938 42.4375 280.074219 43.167969 C 280.558594 43.898438 281.011719 44.648438 281.421875 45.421875 C 281.835938 46.195312 282.210938 46.988281 282.546875 47.796875 C 282.882812 48.609375 283.179688 49.433594 283.433594 50.273438 C 283.6875 51.113281 283.902344 51.960938 284.070312 52.824219 C 284.242188 53.683594 284.371094 54.550781 284.457031 55.421875 C 284.542969 56.296875 284.585938 57.171875 284.585938 58.046875 L 284.585938 316.949219 C 284.585938 317.828125 284.542969 318.703125 284.457031 319.574219 C 284.371094 320.449219 284.242188 321.3125 284.070312 322.175781 C 283.902344 323.035156 283.6875 323.886719 283.433594 324.722656 C 283.179688 325.5625 282.882812 326.386719 282.546875 327.199219 C 282.210938 328.007812 281.835938 328.800781 281.421875 329.574219 C 281.011719 330.347656 280.558594 331.101562 280.074219 331.828125 C 279.585938 332.558594 279.0625 333.261719 278.507812 333.941406 C 277.949219 334.617188 277.363281 335.269531 276.742188 335.886719 C 276.121094 336.507812 275.472656 337.097656 274.792969 337.652344 C 274.117188 338.210938 273.414062 338.730469 272.683594 339.21875 C 271.953125 339.707031 271.203125 340.15625 270.429688 340.570312 C 269.65625 340.984375 268.863281 341.359375 268.054688 341.695312 C 267.242188 342.03125 266.417969 342.324219 265.578125 342.578125 C 264.738281 342.832031 263.890625 343.046875 263.027344 343.21875 C 262.167969 343.390625 261.300781 343.519531 260.429688 343.605469 C 259.554688 343.691406 258.679688 343.734375 257.804688 343.734375 L 117.191406 343.734375 C 116.316406 343.734375 115.441406 343.691406 114.566406 343.605469 C 113.695312 343.519531 112.828125 343.390625 111.96875 343.21875 C 111.109375 343.046875 110.257812 342.832031 109.417969 342.578125 C 108.578125 342.324219 107.753906 342.03125 106.945312 341.695312 C 106.132812 341.359375 105.339844 340.984375 104.566406 340.570312 C 103.792969 340.15625 103.042969 339.707031 102.3125 339.21875 C 101.582031 338.730469 100.878906 338.210938 100.203125 337.652344 C 99.523438 337.097656 98.875 336.507812 98.253906 335.886719 C 97.632812 335.269531 97.046875 334.617188 96.488281 333.941406 C 95.933594 333.261719 95.410156 332.558594 94.925781 331.828125 C 94.4375 331.101562 93.984375 330.347656 93.574219 329.574219 C 93.160156 328.800781 92.785156 328.007812 92.449219 327.199219 C 92.113281 326.386719 91.816406 325.5625 91.5625 324.722656 C 91.308594 323.886719 91.097656 323.035156 90.925781 322.175781 C 90.753906 321.3125 90.625 320.449219 90.539062 319.574219 C 90.453125 318.703125 90.410156 317.828125 90.410156 316.949219 Z M 90.410156 58.046875 " fill-opacity="1" fill-rule="nonzero"/></g><path fill="#ffffff" d="M 187.5 333.890625 C 188.355469 333.890625 189.214844 333.847656 190.070312 333.761719 C 190.921875 333.679688 191.773438 333.554688 192.613281 333.386719 C 193.457031 333.21875 194.289062 333.011719 195.109375 332.761719 C 195.933594 332.511719 196.742188 332.222656 197.535156 331.894531 C 198.328125 331.566406 199.101562 331.199219 199.859375 330.792969 C 200.617188 330.386719 201.355469 329.945312 202.066406 329.46875 C 202.78125 328.992188 203.472656 328.480469 204.136719 327.9375 C 204.800781 327.390625 205.433594 326.816406 206.042969 326.207031 C 206.648438 325.601562 207.226562 324.964844 207.769531 324.300781 C 208.316406 323.636719 208.828125 322.949219 209.304688 322.234375 C 209.78125 321.519531 210.222656 320.785156 210.625 320.027344 C 211.03125 319.269531 211.398438 318.496094 211.726562 317.699219 C 212.054688 316.90625 212.34375 316.097656 212.59375 315.277344 C 212.84375 314.457031 213.050781 313.625 213.21875 312.78125 C 213.386719 311.9375 213.511719 311.089844 213.597656 310.234375 C 213.679688 309.378906 213.722656 308.523438 213.722656 307.664062 C 213.722656 306.804688 213.679688 305.949219 213.597656 305.09375 C 213.511719 304.238281 213.386719 303.390625 213.21875 302.546875 C 213.050781 301.707031 212.84375 300.875 212.59375 300.050781 C 212.34375 299.230469 212.054688 298.421875 211.726562 297.628906 C 211.398438 296.835938 211.03125 296.058594 210.625 295.300781 C 210.222656 294.546875 209.78125 293.808594 209.304688 293.09375 C 208.828125 292.382812 208.316406 291.691406 207.769531 291.027344 C 207.226562 290.363281 206.648438 289.726562 206.042969 289.121094 C 205.433594 288.515625 204.800781 287.9375 204.136719 287.394531 C 203.472656 286.847656 202.78125 286.335938 202.066406 285.859375 C 201.355469 285.382812 200.617188 284.941406 199.859375 284.535156 C 199.101562 284.132812 198.328125 283.765625 197.535156 283.4375 C 196.742188 283.109375 195.933594 282.820312 195.109375 282.570312 C 194.289062 282.320312 193.457031 282.113281 192.613281 281.945312 C 191.773438 281.777344 190.921875 281.652344 190.070312 281.566406 C 189.214844 281.480469 188.355469 281.441406 187.5 281.441406 C 186.640625 281.441406 185.78125 281.480469 184.925781 281.566406 C 184.074219 281.652344 183.222656 281.777344 182.382812 281.945312 C 181.539062 282.113281 180.707031 282.320312 179.886719 282.570312 C 179.0625 282.820312 178.257812 283.109375 177.460938 283.4375 C 176.667969 283.765625 175.894531 284.132812 175.136719 284.535156 C 174.378906 284.941406 173.640625 285.382812 172.929688 285.859375 C 172.214844 286.335938 171.523438 286.847656 170.859375 287.394531 C 170.199219 287.9375 169.5625 288.515625 168.953125 289.121094 C 168.347656 289.726562 167.769531 290.363281 167.226562 291.027344 C 166.679688 291.691406 166.171875 292.382812 165.691406 293.09375 C 165.214844 293.808594 164.773438 294.546875 164.371094 295.300781 C 163.964844 296.058594 163.597656 296.835938 163.269531 297.628906 C 162.941406 298.421875 162.652344 299.230469 162.402344 300.050781 C 162.152344 300.875 161.945312 301.707031 161.777344 302.546875 C 161.609375 303.390625 161.484375 304.238281 161.398438 305.09375 C 161.316406 305.949219 161.273438 306.804688 161.273438 307.664062 C 161.273438 308.523438 161.316406 309.378906 161.402344 310.234375 C 161.488281 311.089844 161.613281 311.9375 161.78125 312.78125 C 161.949219 313.621094 162.15625 314.453125 162.40625 315.273438 C 162.65625 316.097656 162.945312 316.902344 163.277344 317.699219 C 163.605469 318.492188 163.972656 319.265625 164.375 320.023438 C 164.78125 320.78125 165.222656 321.515625 165.699219 322.230469 C 166.175781 322.941406 166.6875 323.632812 167.234375 324.296875 C 167.777344 324.960938 168.355469 325.59375 168.960938 326.203125 C 169.566406 326.808594 170.203125 327.386719 170.867188 327.929688 C 171.53125 328.476562 172.21875 328.984375 172.933594 329.464844 C 173.648438 329.941406 174.382812 330.382812 175.140625 330.785156 C 175.898438 331.191406 176.671875 331.558594 177.464844 331.886719 C 178.257812 332.214844 179.066406 332.507812 179.886719 332.753906 C 180.710938 333.003906 181.542969 333.214844 182.382812 333.382812 C 183.226562 333.550781 184.074219 333.675781 184.929688 333.761719 C 185.78125 333.847656 186.640625 333.890625 187.5 333.890625 Z M 187.5 299.296875 C 188.046875 299.296875 188.59375 299.347656 189.132812 299.457031 C 189.671875 299.5625 190.195312 299.722656 190.699219 299.933594 C 191.207031 300.144531 191.691406 300.402344 192.148438 300.707031 C 192.605469 301.011719 193.027344 301.359375 193.417969 301.746094 C 193.804688 302.136719 194.152344 302.558594 194.457031 303.015625 C 194.761719 303.472656 195.019531 303.953125 195.230469 304.460938 C 195.441406 304.96875 195.601562 305.492188 195.707031 306.03125 C 195.8125 306.570312 195.867188 307.117188 195.867188 307.664062 C 195.867188 308.214844 195.8125 308.757812 195.707031 309.296875 C 195.601562 309.835938 195.441406 310.359375 195.230469 310.867188 C 195.019531 311.375 194.761719 311.859375 194.457031 312.316406 C 194.152344 312.773438 193.804688 313.195312 193.417969 313.582031 C 193.027344 313.972656 192.605469 314.320312 192.148438 314.625 C 191.691406 314.929688 191.207031 315.1875 190.699219 315.398438 C 190.195312 315.609375 189.671875 315.765625 189.132812 315.875 C 188.59375 315.980469 188.046875 316.035156 187.5 316.035156 C 186.949219 316.035156 186.40625 315.980469 185.867188 315.875 C 185.328125 315.765625 184.804688 315.609375 184.296875 315.398438 C 183.789062 315.1875 183.304688 314.929688 182.847656 314.625 C 182.390625 314.320312 181.96875 313.972656 181.578125 313.582031 C 181.191406 313.195312 180.84375 312.773438 180.539062 312.316406 C 180.234375 311.859375 179.976562 311.375 179.765625 310.867188 C 179.554688 310.359375 179.398438 309.835938 179.289062 309.296875 C 179.183594 308.757812 179.128906 308.214844 179.128906 307.664062 C 179.128906 307.117188 179.183594 306.570312 179.289062 306.03125 C 179.398438 305.492188 179.554688 304.96875 179.765625 304.460938 C 179.976562 303.953125 180.234375 303.472656 180.539062 303.015625 C 180.84375 302.558594 181.191406 302.136719 181.578125 301.746094 C 181.96875 301.359375 182.390625 301.011719 182.847656 300.707031 C 183.304688 300.402344 183.789062 300.144531 184.296875 299.933594 C 184.804688 299.722656 185.328125 299.5625 185.867188 299.457031 C 186.40625 299.347656 186.949219 299.296875 187.5 299.296875 Z M 187.5 299.296875 " fill-opacity="1" fill-rule="nonzero"/><path fill="#ffffff" d="M 178.859375 55.257812 L 196.15625 55.257812 C 196.746094 55.257812 197.324219 55.199219 197.898438 55.085938 C 198.476562 54.972656 199.03125 54.804688 199.574219 54.578125 C 200.117188 54.355469 200.628906 54.078125 201.117188 53.753906 C 201.605469 53.429688 202.054688 53.058594 202.472656 52.644531 C 202.886719 52.230469 203.253906 51.777344 203.582031 51.289062 C 203.90625 50.804688 204.183594 50.289062 204.40625 49.746094 C 204.628906 49.207031 204.800781 48.648438 204.914062 48.074219 C 205.027344 47.496094 205.085938 46.917969 205.085938 46.332031 C 205.085938 45.746094 205.027344 45.164062 204.914062 44.589844 C 204.800781 44.015625 204.628906 43.457031 204.40625 42.914062 C 204.183594 42.371094 203.90625 41.859375 203.582031 41.371094 C 203.253906 40.882812 202.886719 40.433594 202.472656 40.019531 C 202.054688 39.601562 201.605469 39.234375 201.117188 38.90625 C 200.628906 38.582031 200.117188 38.308594 199.574219 38.082031 C 199.03125 37.859375 198.476562 37.6875 197.898438 37.574219 C 197.324219 37.460938 196.746094 37.402344 196.15625 37.402344 L 178.859375 37.402344 C 178.273438 37.402344 177.695312 37.460938 177.117188 37.574219 C 176.542969 37.6875 175.984375 37.859375 175.445312 38.082031 C 174.902344 38.308594 174.386719 38.582031 173.902344 38.90625 C 173.414062 39.234375 172.960938 39.601562 172.546875 40.019531 C 172.132812 40.433594 171.761719 40.882812 171.4375 41.371094 C 171.113281 41.859375 170.835938 42.371094 170.613281 42.914062 C 170.386719 43.457031 170.21875 44.015625 170.105469 44.589844 C 169.992188 45.164062 169.933594 45.746094 169.933594 46.332031 C 169.933594 46.917969 169.992188 47.496094 170.105469 48.074219 C 170.21875 48.648438 170.386719 49.207031 170.613281 49.746094 C 170.835938 50.289062 171.113281 50.804688 171.4375 51.289062 C 171.761719 51.777344 172.132812 52.230469 172.546875 52.644531 C 172.960938 53.058594 173.414062 53.429688 173.902344 53.753906 C 174.386719 54.078125 174.902344 54.355469 175.445312 54.578125 C 175.984375 54.804688 176.542969 54.972656 177.117188 55.085938 C 177.695312 55.199219 178.273438 55.257812 178.859375 55.257812 Z M 178.859375 55.257812 " fill-opacity="1" fill-rule="nonzero"/></svg>