<svg xmlns="http://www.w3.org/2000/svg" xmlns:xlink="http://www.w3.org/1999/xlink" width="500" zoomAndPan="magnify" viewBox="0 0 375 374.999991" height="500" preserveAspectRatio="xMidYMid meet" version="1.0"><defs><clipPath id="a97d1a67e3"><path d="M 10.707031 41.195312 L 363.957031 41.195312 L 363.957031 279 L 10.707031 279 Z M 10.707031 41.195312 " clip-rule="nonzero"/></clipPath><clipPath id="bf99a6dbff"><path d="M 83 312 L 292 312 L 292 333.695312 L 83 333.695312 Z M 83 312 " clip-rule="nonzero"/></clipPath></defs><g clip-path="url(#a97d1a67e3)"><path fill="#ffffff" d="M 348.859375 229.472656 L 26.136719 229.472656 L 26.136719 58.121094 C 26.136719 57.355469 26.761719 56.738281 27.527344 56.738281 L 347.476562 56.738281 C 348.230469 56.738281 348.859375 57.355469 348.859375 58.121094 Z M 222.871094 262.671875 C 221.214844 264.332031 218.914062 265.363281 216.375 265.363281 L 158.617188 265.363281 C 153.542969 265.363281 149.429688 261.242188 149.429688 256.167969 C 149.429688 253.628906 150.453125 251.328125 152.121094 249.667969 C 153.78125 248.003906 156.082031 246.976562 158.617188 246.976562 L 216.375 246.976562 C 221.453125 246.976562 225.566406 251.089844 225.566406 256.167969 C 225.566406 258.707031 224.539062 261.003906 222.871094 262.671875 Z M 347.476562 41.304688 L 27.527344 41.304688 C 18.25 41.304688 10.703125 48.851562 10.703125 58.121094 L 10.703125 261.675781 C 10.703125 270.945312 18.25 278.492188 27.527344 278.492188 L 347.476562 278.492188 C 356.742188 278.492188 364.292969 270.945312 364.292969 261.675781 L 364.292969 58.121094 C 364.292969 48.851562 356.742188 41.304688 347.476562 41.304688 " fill-opacity="1" fill-rule="nonzero"/></g><path fill="#ffffff" d="M 220.933594 256.167969 C 220.933594 257.386719 220.457031 258.535156 219.601562 259.402344 C 218.738281 260.257812 217.59375 260.738281 216.375 260.738281 L 158.617188 260.738281 C 156.101562 260.738281 154.058594 258.683594 154.058594 256.167969 C 154.058594 254.945312 154.527344 253.804688 155.402344 252.933594 C 156.257812 252.078125 157.398438 251.605469 158.617188 251.605469 L 216.375 251.605469 C 218.890625 251.605469 220.933594 253.648438 220.933594 256.167969 " fill-opacity="1" fill-rule="nonzero"/><g clip-path="url(#bf99a6dbff)"><path fill="#ffffff" d="M 291.484375 333.664062 L 83.519531 333.664062 C 87.648438 321.554688 99.136719 312.820312 112.628906 312.820312 L 262.375 312.820312 C 275.871094 312.820312 287.351562 321.554688 291.484375 333.664062 " fill-opacity="1" fill-rule="nonzero"/></g><path fill="#ffffff" d="M 227.082031 307.230469 L 147.917969 307.230469 L 155.707031 284.078125 L 219.296875 284.078125 L 227.082031 307.230469 " fill-opacity="1" fill-rule="nonzero"/></svg>